<svg width="24" height="25" viewBox="0 0 24 25" fill="none" xmlns="http://www.w3.org/2000/svg">
    <circle cx="12" cy="12.4404" r="12" fill="#E13434" />
    <path
        d="M18.7972 16.0337L12.7131 4.89234C12.5584 4.60955 12.2737 4.44043 11.9516 4.44043C11.6296 4.44043 11.3448 4.60955 11.1902 4.89234L5.10606 16.0337C4.95867 16.3053 4.96367 16.6256 5.11997 16.891C5.27738 17.1598 5.55714 17.32 5.86803 17.32H18.0352C18.3461 17.32 18.6259 17.1598 18.7833 16.891C18.9396 16.6256 18.9446 16.3053 18.7972 16.0337ZM11.8143 8.93204C11.861 8.92419 11.9072 8.92028 11.9528 8.92028C12.3532 8.92028 12.7064 9.20868 12.7742 9.61465C12.7904 9.70705 12.7887 9.80114 12.7742 9.88847L12.2258 13.1683C12.203 13.3038 12.0851 13.4001 11.9522 13.4001C11.9372 13.4001 11.921 13.399 11.906 13.3962C11.7853 13.376 11.6963 13.282 11.6774 13.1683L11.129 9.88847C11.0528 9.43547 11.3604 9.00707 11.8143 8.93204ZM11.9516 15.64C11.4917 15.64 11.1173 15.2632 11.1173 14.8001C11.1173 14.3369 11.4916 13.9601 11.9516 13.9601C12.4116 13.9601 12.7859 14.337 12.7859 14.8001C12.7859 15.2632 12.4116 15.64 11.9516 15.64Z"
        fill="white" />
</svg>